<mxfile host="app.diagrams.net" modified="2021-12-29T12:53:52.055Z" agent="5.0 (Macintosh; Intel Mac OS X 10_15_7) AppleWebKit/537.36 (KHTML, like Gecko) Chrome/96.0.4664.55 Safari/537.36" etag="i2KhMdxkIcxUyoWE36mz" version="15.9.6" type="github">
  <diagram id="VAQAkDA2NnrK05VdmbuD" name="Page-1">
    <mxGraphModel dx="2066" dy="1129" grid="1" gridSize="10" guides="1" tooltips="1" connect="1" arrows="1" fold="1" page="1" pageScale="1" pageWidth="1600" pageHeight="900" math="0" shadow="0">
      <root>
        <mxCell id="0" />
        <mxCell id="1" parent="0" />
        <mxCell id="4xexhDeobzgA6xPNaXB_-2" style="edgeStyle=orthogonalEdgeStyle;rounded=0;orthogonalLoop=1;jettySize=auto;html=1;exitX=1;exitY=0.5;exitDx=0;exitDy=0;entryX=0;entryY=0.5;entryDx=0;entryDy=0;" edge="1" parent="1" source="n8icMTEoNzyFG5OwaMuK-1" target="4xexhDeobzgA6xPNaXB_-1">
          <mxGeometry relative="1" as="geometry" />
        </mxCell>
        <mxCell id="n8icMTEoNzyFG5OwaMuK-1" value="应用中心" style="shape=image;verticalLabelPosition=bottom;verticalAlign=top;imageAspect=0;aspect=fixed;image=data:image/svg+xml,PHN2ZyB4bWxucz0iaHR0cDovL3d3dy53My5vcmcvMjAwMC9zdmciIHdpZHRoPSI3MiIgaGVpZ2h0PSI3MiIgdmlld0JveD0iMCAwIDcyIDcyIiBmaWxsPSJub25lIj4mI3hhOzxwYXRoIGQ9Ik0yLjc0MjQxIDMyLjI1TDE2LjEyMzYgOS4wNzMwOUMxNy40NjM0IDYuNzUyNTggMTkuOTM5MyA1LjMyMzA5IDIyLjYxODggNS4zMjMwOUg0OS4zODEyQzUyLjA2MDcgNS4zMjMwOSA1NC41MzY2IDYuNzUyNTggNTUuODc2NCA5LjA3MzA5TDY5LjI1NzYgMzIuMjVDNzAuNTk3MyAzNC41NzA1IDcwLjU5NzMgMzcuNDI5NSA2OS4yNTc2IDM5Ljc1TDU1Ljg3NjQgNjIuOTI2OUM1NC41MzY2IDY1LjI0NzQgNTIuMDYwNyA2Ni42NzY5IDQ5LjM4MTIgNjYuNjc2OUgyMi42MTg4QzE5LjkzOTMgNjYuNjc2OSAxNy40NjM0IDY1LjI0NzQgMTYuMTIzNiA2Mi45MjY5TDIuNzQyNDEgMzkuNzVDMS40MDI2NyAzNy40Mjk1IDEuNDAyNjcgMzQuNTcwNSAyLjc0MjQxIDMyLjI1WiIgc3Ryb2tlPSIjQzVDRURFIi8+JiN4YTs8cGF0aCBmaWxsLXJ1bGU9ImV2ZW5vZGQiIGNsaXAtcnVsZT0iZXZlbm9kZCIgZD0iTTM1Ljk5OTkgMjBDMzkuMjk0MiAyMCA0Mi4wMDcyIDIyLjggNDIuMzYwOSAyNi40SDQ1LjE3NUM0Ni43ODg5IDI2LjQgNDguMTUwMiAyNy42MDE3IDQ4LjM1MDMgMjkuMjAzMUw1MC43NTAzIDQ4LjQwMzFDNTAuOTY5NSA1MC4xNTY4IDQ5LjcyNTYgNTEuNzU2MSA0Ny45NzIgNTEuOTc1M0M0Ny44NDAzIDUxLjk5MTcgNDcuNzA3NyA1MiA0Ny41NzUgNTJIMjQuNDI0OUMyMi42NTc1IDUyIDIxLjIyNDkgNTAuNTY3MyAyMS4yMjQ5IDQ4LjhDMjEuMjI0OSA0OC42NjczIDIxLjIzMzEgNDguNTM0OCAyMS4yNDk2IDQ4LjQwMzFMMjMuNjQ5NiAyOS4yMDMxQzIzLjg0OTcgMjcuNjAxNyAyNS4yMTEgMjYuNCAyNi44MjQ5IDI2LjRIMjkuNjM5QzI5Ljk5MjcgMjIuOCAzMi43MDU3IDIwIDM1Ljk5OTkgMjBaTTMyLjA1NTEgMjYuNEgzOS45NDQ4QzM5LjYyMiAyNC4wODk2IDM3LjkyNTggMjIuNCAzNS45OTk5IDIyLjRDMzQuMDc0MSAyMi40IDMyLjM3NzkgMjQuMDg5NiAzMi4wNTUxIDI2LjRaTTI2LjA1ODIgMjkuMzcxM0MyNi4xNTc1IDI5LjAzNzQgMjYuNDY2MiAyOC44IDI2LjgyNDkgMjguOEg0NS4xNzVMNDUuMzA2OSAyOC44MTA5QzQ1LjY1MDUgMjguODY4IDQ1LjkyNDQgMjkuMTQ0OSA0NS45Njg5IDI5LjUwMDhMNDguMzY4OSA0OC43MDA4TDQ4LjM3MzkgNDguODQ1MUM0OC4zNTMgNDkuMjIzOCA0OC4wNjQgNDkuNTQ1MSA0Ny42NzQzIDQ5LjU5MzhDNDcuNjQxNCA0OS41OTc5IDQ3LjYwODIgNDkuNiA0Ny41NzUgNDkuNkgyNC40MjQ5TDI0LjI4MTEgNDkuNTg3MUMyMy45MDc5IDQ5LjUxOTQgMjMuNjI0OSA0OS4xOTI3IDIzLjYyNDkgNDguOEMyMy42MjQ5IDQ4Ljc2NjggMjMuNjI2OSA0OC43MzM3IDIzLjYzMSA0OC43MDA4TDI2LjAzMSAyOS41MDA4TDI2LjA1ODIgMjkuMzcxM1pNMzEuOTc4MiAzMkMzMy42NDUxIDMyIDM1LjAyNTUgMzMuMjkwMSAzNS4xNDc2IDM0Ljk0MjlMMzUuMTU2NCAzNS4xODE0VjM4LjM2MjhIMzEuOTc4MkMzMC4yMzE5IDM4LjM2MjggMjguOCAzNi45Mjk0IDI4LjggMzUuMTgxNEMyOC44IDMzLjUxMjggMzAuMTA0NyAzMi4xMzEgMzEuNzQyMSAzMi4wMDg4TDMxLjk3ODIgMzJaTTM1LjE1NjQgNDMuMjE4NlY0MC4wMzcySDMxLjk3ODJDMzAuMjMxOSA0MC4wMzcyIDI4LjggNDEuNDUzMSAyOC44IDQzLjIxODZDMjguOCA0NC45NjY2IDMwLjIzMTkgNDYuNCAzMS45NzgyIDQ2LjRMMzIuMjE0MiA0Ni4zOTEzQzMzLjg1MTYgNDYuMjcwNiAzNS4xNTY0IDQ0LjkwMzkgMzUuMTU2NCA0My4yMTg2Wk00My4yIDQzLjIxODZDNDMuMiA0MS40NTMxIDQxLjc2OCA0MC4wMzcyIDQwLjAyMTcgNDAuMDM3MkgzNi44MjYxVjQzLjIxODZIMzYuODQzNUwzNi44NTIzIDQzLjQ1NzFDMzYuOTc0NCA0NS4xMDk5IDM4LjM1NDggNDYuNCA0MC4wMjE3IDQ2LjRMNDAuMjU3OCA0Ni4zOTEyQzQxLjg5NTIgNDYuMjY5IDQzLjIgNDQuODg3MiA0My4yIDQzLjIxODZaTTMzLjQ1OTIgNDEuNzMyOEwzMS45NzgyIDQxLjczMzJDMzEuMTYxNSA0MS43MzMyIDMwLjQ5NiA0Mi4zOTY5IDMwLjQ5NiA0My4yMTg2QzMwLjQ5NiA0NC4wMzAzIDMxLjE2ODkgNDQuNzA0IDMxLjk3ODIgNDQuNzA0QzMyLjczNjUgNDQuNzA0IDMzLjM2NDUgNDQuMTMxOCAzMy40NTA0IDQzLjM5MjFMMzMuNDYwNCA0My4yMTg2TDMzLjQ1OTIgNDEuNzMyOFpNMzguNTIxNSA0MS43MzI4TDQwLjAyMTcgNDEuNzMzMkw0MC4xOTQyIDQxLjc0MzJDNDAuOTMwMSA0MS44Mjg4IDQxLjUwMzkgNDIuNDU1NiA0MS41MDM5IDQzLjIxODZDNDEuNTAzOSA0NC4wMzAzIDQwLjgzMSA0NC43MDQgNDAuMDIxNyA0NC43MDRDMzkuMjQ2NyA0NC43MDQgMzguNjAwNiA0NC4xMDI5IDM4LjU0MzcgNDMuMzMyMkwzOC41MjE1IDQyLjcxNjhWNDEuNzMyOFpNNDMuMiAzNS4xODE0QzQzLjIgMzMuNDMzNCA0MS43NjggMzIgNDAuMDIxNyAzMkwzOS43ODU3IDMyLjAwODdDMzguMTQ4MyAzMi4xMjk0IDM2Ljg0MzUgMzMuNDk2MSAzNi44NDM1IDM1LjE4MTRIMzYuODI2MVYzOC4zNjI4SDQwLjAyMTdDNDEuNzY4IDM4LjM2MjggNDMuMiAzNi45Mjk0IDQzLjIgMzUuMTgxNFpNMzEuOTc4MiAzMy42OTZDMzEuMTY4OSAzMy42OTYgMzAuNDk2IDM0LjM2OTcgMzAuNDk2IDM1LjE4MTRDMzAuNDk2IDM1LjkzNTEgMzEuMDc2MiAzNi41Njk4IDMxLjgwNyAzNi42NTY3TDMxLjk3ODIgMzYuNjY2OEwzMy40NjA3IDM2LjY2NTZMMzMuNDYxNSAzNS4yNDM3TDMzLjQ1NjIgMzUuMDY3OEMzMy40MDggMzQuNDE1NyAzMi45MzggMzMuODg1IDMyLjMyNSAzMy43MzcxTDMyLjE1NDUgMzMuNzA2NUwzMS45NzgyIDMzLjY5NlpNMzguNTQ5NSAzNS4wMDc5QzM4LjYzNTQgMzQuMjY4MiAzOS4yNjM0IDMzLjY5NiA0MC4wMjE3IDMzLjY5NkM0MC44MzEgMzMuNjk2IDQxLjUwMzkgMzQuMzY5NyA0MS41MDM5IDM1LjE4MTRMNDEuNDkzOCAzNS4zNTNDNDEuNDA3MSAzNi4wODU5IDQwLjc3MzIgMzYuNjY2OCA0MC4wMjE3IDM2LjY2NjhMMzguNTM5MiAzNi42NjU2TDM4LjUzOTUgMzUuMTgxNEwzOC41NDk1IDM1LjAwNzlaIiBmaWxsPSJ1cmwoI3BhaW50MF9saW5lYXJfMTY5XzE2NjgpIi8+JiN4YTs8ZGVmcz4mI3hhOzxsaW5lYXJHcmFkaWVudCBpZD0icGFpbnQwX2xpbmVhcl8xNjlfMTY2OCIgeDE9IjcyLjAxNDgiIHkxPSIxMCIgeDI9IjE5LjMwODEiIHkyPSIzNy44NzU5IiBncmFkaWVudFVuaXRzPSJ1c2VyU3BhY2VPblVzZSI+JiN4YTs8c3RvcCBzdG9wLWNvbG9yPSIjNjAzOUZGIi8+JiN4YTs8c3RvcCBvZmZzZXQ9IjEiIHN0b3AtY29sb3I9IiM1MDFBN0EiLz4mI3hhOzwvbGluZWFyR3JhZGllbnQ+JiN4YTs8L2RlZnM+JiN4YTs8L3N2Zz4=" parent="1" vertex="1">
          <mxGeometry x="320" y="230" width="72" height="72" as="geometry" />
        </mxCell>
        <mxCell id="4xexhDeobzgA6xPNaXB_-1" value="应用中心" style="shape=image;verticalLabelPosition=bottom;verticalAlign=top;imageAspect=0;aspect=fixed;image=data:image/svg+xml,PHN2ZyB4bWxucz0iaHR0cDovL3d3dy53My5vcmcvMjAwMC9zdmciIHdpZHRoPSI3MiIgaGVpZ2h0PSI3MiIgdmlld0JveD0iMCAwIDcyIDcyIiBmaWxsPSJub25lIj4mI3hhOzxwYXRoIGQ9Ik0yLjc0MjQxIDMyLjI1TDE2LjEyMzYgOS4wNzMwOUMxNy40NjM0IDYuNzUyNTggMTkuOTM5MyA1LjMyMzA5IDIyLjYxODggNS4zMjMwOUg0OS4zODEyQzUyLjA2MDcgNS4zMjMwOSA1NC41MzY2IDYuNzUyNTggNTUuODc2NCA5LjA3MzA5TDY5LjI1NzYgMzIuMjVDNzAuNTk3MyAzNC41NzA1IDcwLjU5NzMgMzcuNDI5NSA2OS4yNTc2IDM5Ljc1TDU1Ljg3NjQgNjIuOTI2OUM1NC41MzY2IDY1LjI0NzQgNTIuMDYwNyA2Ni42NzY5IDQ5LjM4MTIgNjYuNjc2OUgyMi42MTg4QzE5LjkzOTMgNjYuNjc2OSAxNy40NjM0IDY1LjI0NzQgMTYuMTIzNiA2Mi45MjY5TDIuNzQyNDEgMzkuNzVDMS40MDI2NyAzNy40Mjk1IDEuNDAyNjcgMzQuNTcwNSAyLjc0MjQxIDMyLjI1WiIgc3Ryb2tlPSIjQzVDRURFIi8+JiN4YTs8cGF0aCBmaWxsLXJ1bGU9ImV2ZW5vZGQiIGNsaXAtcnVsZT0iZXZlbm9kZCIgZD0iTTM1Ljk5OTkgMjBDMzkuMjk0MiAyMCA0Mi4wMDcyIDIyLjggNDIuMzYwOSAyNi40SDQ1LjE3NUM0Ni43ODg5IDI2LjQgNDguMTUwMiAyNy42MDE3IDQ4LjM1MDMgMjkuMjAzMUw1MC43NTAzIDQ4LjQwMzFDNTAuOTY5NSA1MC4xNTY4IDQ5LjcyNTYgNTEuNzU2MSA0Ny45NzIgNTEuOTc1M0M0Ny44NDAzIDUxLjk5MTcgNDcuNzA3NyA1MiA0Ny41NzUgNTJIMjQuNDI0OUMyMi42NTc1IDUyIDIxLjIyNDkgNTAuNTY3MyAyMS4yMjQ5IDQ4LjhDMjEuMjI0OSA0OC42NjczIDIxLjIzMzEgNDguNTM0OCAyMS4yNDk2IDQ4LjQwMzFMMjMuNjQ5NiAyOS4yMDMxQzIzLjg0OTcgMjcuNjAxNyAyNS4yMTEgMjYuNCAyNi44MjQ5IDI2LjRIMjkuNjM5QzI5Ljk5MjcgMjIuOCAzMi43MDU3IDIwIDM1Ljk5OTkgMjBaTTMyLjA1NTEgMjYuNEgzOS45NDQ4QzM5LjYyMiAyNC4wODk2IDM3LjkyNTggMjIuNCAzNS45OTk5IDIyLjRDMzQuMDc0MSAyMi40IDMyLjM3NzkgMjQuMDg5NiAzMi4wNTUxIDI2LjRaTTI2LjA1ODIgMjkuMzcxM0MyNi4xNTc1IDI5LjAzNzQgMjYuNDY2MiAyOC44IDI2LjgyNDkgMjguOEg0NS4xNzVMNDUuMzA2OSAyOC44MTA5QzQ1LjY1MDUgMjguODY4IDQ1LjkyNDQgMjkuMTQ0OSA0NS45Njg5IDI5LjUwMDhMNDguMzY4OSA0OC43MDA4TDQ4LjM3MzkgNDguODQ1MUM0OC4zNTMgNDkuMjIzOCA0OC4wNjQgNDkuNTQ1MSA0Ny42NzQzIDQ5LjU5MzhDNDcuNjQxNCA0OS41OTc5IDQ3LjYwODIgNDkuNiA0Ny41NzUgNDkuNkgyNC40MjQ5TDI0LjI4MTEgNDkuNTg3MUMyMy45MDc5IDQ5LjUxOTQgMjMuNjI0OSA0OS4xOTI3IDIzLjYyNDkgNDguOEMyMy42MjQ5IDQ4Ljc2NjggMjMuNjI2OSA0OC43MzM3IDIzLjYzMSA0OC43MDA4TDI2LjAzMSAyOS41MDA4TDI2LjA1ODIgMjkuMzcxM1pNMzEuOTc4MiAzMkMzMy42NDUxIDMyIDM1LjAyNTUgMzMuMjkwMSAzNS4xNDc2IDM0Ljk0MjlMMzUuMTU2NCAzNS4xODE0VjM4LjM2MjhIMzEuOTc4MkMzMC4yMzE5IDM4LjM2MjggMjguOCAzNi45Mjk0IDI4LjggMzUuMTgxNEMyOC44IDMzLjUxMjggMzAuMTA0NyAzMi4xMzEgMzEuNzQyMSAzMi4wMDg4TDMxLjk3ODIgMzJaTTM1LjE1NjQgNDMuMjE4NlY0MC4wMzcySDMxLjk3ODJDMzAuMjMxOSA0MC4wMzcyIDI4LjggNDEuNDUzMSAyOC44IDQzLjIxODZDMjguOCA0NC45NjY2IDMwLjIzMTkgNDYuNCAzMS45NzgyIDQ2LjRMMzIuMjE0MiA0Ni4zOTEzQzMzLjg1MTYgNDYuMjcwNiAzNS4xNTY0IDQ0LjkwMzkgMzUuMTU2NCA0My4yMTg2Wk00My4yIDQzLjIxODZDNDMuMiA0MS40NTMxIDQxLjc2OCA0MC4wMzcyIDQwLjAyMTcgNDAuMDM3MkgzNi44MjYxVjQzLjIxODZIMzYuODQzNUwzNi44NTIzIDQzLjQ1NzFDMzYuOTc0NCA0NS4xMDk5IDM4LjM1NDggNDYuNCA0MC4wMjE3IDQ2LjRMNDAuMjU3OCA0Ni4zOTEyQzQxLjg5NTIgNDYuMjY5IDQzLjIgNDQuODg3MiA0My4yIDQzLjIxODZaTTMzLjQ1OTIgNDEuNzMyOEwzMS45NzgyIDQxLjczMzJDMzEuMTYxNSA0MS43MzMyIDMwLjQ5NiA0Mi4zOTY5IDMwLjQ5NiA0My4yMTg2QzMwLjQ5NiA0NC4wMzAzIDMxLjE2ODkgNDQuNzA0IDMxLjk3ODIgNDQuNzA0QzMyLjczNjUgNDQuNzA0IDMzLjM2NDUgNDQuMTMxOCAzMy40NTA0IDQzLjM5MjFMMzMuNDYwNCA0My4yMTg2TDMzLjQ1OTIgNDEuNzMyOFpNMzguNTIxNSA0MS43MzI4TDQwLjAyMTcgNDEuNzMzMkw0MC4xOTQyIDQxLjc0MzJDNDAuOTMwMSA0MS44Mjg4IDQxLjUwMzkgNDIuNDU1NiA0MS41MDM5IDQzLjIxODZDNDEuNTAzOSA0NC4wMzAzIDQwLjgzMSA0NC43MDQgNDAuMDIxNyA0NC43MDRDMzkuMjQ2NyA0NC43MDQgMzguNjAwNiA0NC4xMDI5IDM4LjU0MzcgNDMuMzMyMkwzOC41MjE1IDQyLjcxNjhWNDEuNzMyOFpNNDMuMiAzNS4xODE0QzQzLjIgMzMuNDMzNCA0MS43NjggMzIgNDAuMDIxNyAzMkwzOS43ODU3IDMyLjAwODdDMzguMTQ4MyAzMi4xMjk0IDM2Ljg0MzUgMzMuNDk2MSAzNi44NDM1IDM1LjE4MTRIMzYuODI2MVYzOC4zNjI4SDQwLjAyMTdDNDEuNzY4IDM4LjM2MjggNDMuMiAzNi45Mjk0IDQzLjIgMzUuMTgxNFpNMzEuOTc4MiAzMy42OTZDMzEuMTY4OSAzMy42OTYgMzAuNDk2IDM0LjM2OTcgMzAuNDk2IDM1LjE4MTRDMzAuNDk2IDM1LjkzNTEgMzEuMDc2MiAzNi41Njk4IDMxLjgwNyAzNi42NTY3TDMxLjk3ODIgMzYuNjY2OEwzMy40NjA3IDM2LjY2NTZMMzMuNDYxNSAzNS4yNDM3TDMzLjQ1NjIgMzUuMDY3OEMzMy40MDggMzQuNDE1NyAzMi45MzggMzMuODg1IDMyLjMyNSAzMy43MzcxTDMyLjE1NDUgMzMuNzA2NUwzMS45NzgyIDMzLjY5NlpNMzguNTQ5NSAzNS4wMDc5QzM4LjYzNTQgMzQuMjY4MiAzOS4yNjM0IDMzLjY5NiA0MC4wMjE3IDMzLjY5NkM0MC44MzEgMzMuNjk2IDQxLjUwMzkgMzQuMzY5NyA0MS41MDM5IDM1LjE4MTRMNDEuNDkzOCAzNS4zNTNDNDEuNDA3MSAzNi4wODU5IDQwLjc3MzIgMzYuNjY2OCA0MC4wMjE3IDM2LjY2NjhMMzguNTM5MiAzNi42NjU2TDM4LjUzOTUgMzUuMTgxNEwzOC41NDk1IDM1LjAwNzlaIiBmaWxsPSJ1cmwoI3BhaW50MF9saW5lYXJfMTY5XzE2NjgpIi8+JiN4YTs8ZGVmcz4mI3hhOzxsaW5lYXJHcmFkaWVudCBpZD0icGFpbnQwX2xpbmVhcl8xNjlfMTY2OCIgeDE9IjcyLjAxNDgiIHkxPSIxMCIgeDI9IjE5LjMwODEiIHkyPSIzNy44NzU5IiBncmFkaWVudFVuaXRzPSJ1c2VyU3BhY2VPblVzZSI+JiN4YTs8c3RvcCBzdG9wLWNvbG9yPSIjNjAzOUZGIi8+JiN4YTs8c3RvcCBvZmZzZXQ9IjEiIHN0b3AtY29sb3I9IiM1MDFBN0EiLz4mI3hhOzwvbGluZWFyR3JhZGllbnQ+JiN4YTs8L2RlZnM+JiN4YTs8L3N2Zz4=" vertex="1" parent="1">
          <mxGeometry x="450" y="230" width="72" height="72" as="geometry" />
        </mxCell>
      </root>
    </mxGraphModel>
  </diagram>
</mxfile>
